<svg width="382" height="381" viewBox="0 0 382 381" fill="none" xmlns="http://www.w3.org/2000/svg">
<path d="M351.547 195.27V188.294C308.308 188.294 317.411 188.294 314.035 170.098C327.424 161.417 338.196 157.095 371.157 148.262L368.388 137.951C302.087 155.693 309.598 149.551 302.619 135.752C308.384 130.18 315.325 125.441 331.028 116.381L327.538 110.353C311.911 119.376 304.78 123.622 296.891 125.517C289.04 113.007 277.092 115.13 325.907 66.3031L318.321 58.7213C269.279 107.965 275.234 97.6918 258.241 86.8877C260.441 79.3059 264.12 71.7241 273.147 55.9919L267.079 52.5043C246.293 88.5178 251.11 81.2393 234.535 75.2497C233.891 60.0861 235.711 48.3722 244.207 16.6044L233.891 13.8371C216.178 79.4197 216.178 68.6535 198.085 67.7058C195.847 59.4416 195.165 51.2154 195.165 31.9955H188.148C188.148 51.1774 188.148 59.2521 185.72 67.7058C170.549 68.426 166.263 80.2157 148.094 12.3965L137.778 15.2018C146.577 48.0689 149.801 58.7972 147.753 75.5909C143.602 77.1546 139.538 78.9389 135.578 80.936C130.002 75.1359 125.147 68.2744 116.234 52.5043L110.165 55.9919C119.192 71.6104 123.44 78.7373 125.526 86.6224C112.972 94.5075 115.096 106.411 66.2809 57.622L58.695 65.2038C115.855 122.333 98.2933 134.956 55.7366 110.391L52.2471 116.457C67.9119 125.479 75.0046 129.46 80.9216 135.411C74.3978 148.111 82.0595 157.019 16.2142 139.202L13.4454 149.513C45.1163 157.967 56.4193 160.697 69.2394 169.946C68.3409 174.961 67.7456 180.024 67.4567 185.11C59.2261 187.347 50.9575 188.029 31.7273 188.067V195.042C50.9195 195.042 58.9985 195.042 67.4567 197.468C68.1774 212.822 79.9734 216.916 12.1178 235.074L14.8867 245.385C81.1871 227.644 73.6771 233.785 80.694 247.584C74.8909 253.195 67.9498 257.895 52.2471 266.956L55.7366 272.983C71.3634 263.961 78.4941 259.715 86.3834 257.819C94.2727 270.405 106.183 268.244 57.3675 317.033L64.9534 324.615C113.768 275.94 108.003 285.872 125.147 296.714C122.947 304.296 119.268 311.878 110.241 327.61L116.272 331.098C125.337 315.441 129.319 308.352 135.236 302.438C147.905 308.921 156.856 301.263 139.029 367.111L149.346 369.879C157.804 338.225 160.725 326.966 169.79 314.114C186.365 317.033 188.072 308.693 188.11 351.606H195.089C195.089 308.39 195.089 317.488 213.295 314.114C221.981 327.496 226.305 338.262 235.142 371.205L245.459 368.438C236.659 335.571 233.435 324.843 235.484 308.049C249.024 302.931 246.483 295.539 267.041 331.098L273.072 327.61C252.324 291.596 256.155 299.519 270.417 288.147C284.147 295.198 293.402 302.552 317.032 326.056L324.617 318.474C275.84 269.685 285.74 275.409 296.626 258.35C304.212 260.549 311.797 264.226 327.538 273.248L331.028 267.183C315.363 258.161 308.27 254.18 302.353 248.229C308.839 235.567 301.139 226.62 367.06 244.438L369.829 234.126C338.196 225.673 326.893 222.943 314.035 213.693C316.956 197.165 308.611 195.308 351.547 195.27Z" fill="#DCDCDC"/>
<path d="M254.107 20.0917C252.438 26.6121 243.449 29.9481 234.08 27.6735C224.712 25.399 218.453 17.8172 220.16 11.4106C221.867 5.00395 230.818 1.47841 240.187 3.82877C249.555 6.17913 255.776 13.5714 254.107 20.0917Z" fill="#AEAEAE"/>
<path d="M334.176 74.8324C329.814 79.9501 320.294 79.0403 312.897 72.7853C305.501 66.5303 303.074 57.3184 307.398 52.1628C311.722 47.0071 321.28 47.9549 328.676 54.2099C336.072 60.4648 338.5 69.6767 334.176 74.8324Z" fill="#AEAEAE"/>
<path d="M371.688 160.203C365.05 161.379 358.337 154.593 356.516 145.04C354.696 135.487 358.83 126.844 365.467 125.668C372.105 124.493 378.857 131.241 380.639 140.832C382.422 150.423 378.288 159.028 371.688 160.203Z" fill="#AEAEAE"/>
<path d="M361.561 255.621C355.189 253.384 352.685 244.248 355.909 235.036C359.133 225.824 366.909 220.365 373.281 222.602C379.653 224.839 382.118 233.975 378.894 243.187C375.67 252.399 367.895 257.82 361.561 255.621Z" fill="#AEAEAE"/>
<path d="M308.194 334.661C303.415 329.846 305.312 320.445 312.291 313.697C319.27 306.949 328.638 305.433 333.341 310.285C338.045 315.138 336.186 324.463 329.245 331.211C322.304 337.959 312.859 339.475 308.194 334.661Z" fill="#AEAEAE"/>
<path d="M221.715 371.091C220.388 364.495 226.987 357.558 236.47 355.662C245.952 353.767 254.752 357.558 256.079 364.116C257.407 370.674 250.807 377.65 241.325 379.545C231.842 381.441 223.081 377.688 221.715 371.091Z" fill="#AEAEAE"/>
<path d="M126.171 363.206C127.613 356.61 136.412 352.971 145.895 355.056C155.377 357.141 161.825 364.154 160.384 370.712C158.942 377.271 150.105 380.91 140.66 378.863C131.216 376.816 124.73 369.765 126.171 363.206Z" fill="#AEAEAE"/>
<path d="M47.8094 312.749C51.6023 307.063 60.9709 306.684 69.1257 311.877C77.2805 317.071 80.9975 326.055 77.3563 331.552C73.7151 337.049 64.1949 337.618 56.0401 332.424C47.8852 327.231 44.2061 318.474 47.8094 312.749Z" fill="#AEAEAE"/>
<path d="M6.69395 225.142C12.9902 222.754 20.9174 228.099 24.369 237.159C27.8206 246.219 25.5448 255.469 19.2486 257.819C12.9523 260.17 5.06299 254.9 1.61142 245.878C-1.84015 236.856 0.435614 227.492 6.69395 225.142Z" fill="#AEAEAE"/>
<path d="M18.3003 128.398C24.8242 130.028 28.1999 138.937 25.8862 148.338C23.5725 157.74 16.328 163.995 9.76623 162.365C3.20446 160.735 -0.0195314 151.674 2.18037 142.387C4.38027 133.099 11.7765 126.73 18.3003 128.398Z" fill="#AEAEAE"/>
<path d="M74.1323 48.4856C78.9873 53.1484 77.508 62.5878 70.7946 69.563C64.0811 76.5383 54.6746 78.3958 49.8196 73.733C44.9647 69.0702 46.5198 59.6308 53.1953 52.6556C59.8709 45.6803 69.2774 43.8228 74.1323 48.4856Z" fill="#AEAEAE"/>
<path d="M159.511 7.84713C161.37 14.3296 155.377 21.7218 146.084 24.4134C136.792 27.1049 127.726 24.0343 125.83 17.5897C123.934 11.1452 130.002 3.82877 139.295 1.0235C148.588 -1.78176 157.653 1.40259 159.511 7.84713Z" fill="#AEAEAE"/>
<path d="M203.244 31.3507C203.244 35.9377 198.237 39.8802 191.637 40.1456C185.038 40.411 179.538 36.9233 179.348 32.3363C179.159 27.7494 184.355 23.8068 190.955 23.5415C197.554 23.2761 203.054 26.5742 203.244 31.3507Z" fill="#AEAEAE"/>
<path d="M280.923 60.2374C278.875 64.3316 272.427 65.3172 266.51 62.3982C260.593 59.4792 257.445 53.7929 259.455 49.6608C261.465 45.5287 267.951 44.581 273.868 47.4621C279.785 50.3432 282.933 56.1053 280.923 60.2374Z" fill="#AEAEAE"/>
<path d="M333.759 124.941C329.966 127.481 323.859 125.13 320.18 119.671C316.501 114.213 316.387 107.654 320.407 105.077C324.428 102.499 330.269 104.887 333.986 110.384C337.703 115.881 337.551 122.363 333.759 124.941Z" fill="#DBD1D1"/>
<path d="M350.447 203.875C345.858 203.875 342.217 198.378 342.368 191.782C342.52 185.186 346.161 179.879 350.903 179.992C355.644 180.106 359.095 185.489 358.981 192.085C358.868 198.681 355.037 203.951 350.447 203.875Z" fill="#DBD1D1"/>
<path d="M321.469 279.314C317.677 276.698 317.677 270.178 321.469 264.719C325.262 259.26 331.293 257.137 335.086 259.563C338.879 261.989 338.879 268.661 335.086 274.12C331.293 279.579 325.262 281.891 321.469 279.314Z" fill="white"/>
<path d="M259.038 334.737C256.497 330.946 259.038 324.842 264.386 321.203C269.734 317.564 276.409 317.715 278.951 321.544C281.492 325.373 278.951 331.401 273.603 335.078C268.255 338.755 261.693 338.565 259.038 334.737Z" fill="#DBD1D1"/>
<path d="M179.879 352.592C179.197 348.043 183.938 343.569 190.499 342.622C197.061 341.674 202.864 344.593 203.509 349.142C204.154 353.691 199.413 358.126 192.889 359.112C186.365 360.098 180.524 357.103 179.879 352.592Z" fill="#DBD1D1"/>
<path d="M103.414 324.16C105.538 320.104 112.024 319.27 117.865 322.378C123.706 325.487 126.702 331.211 124.578 335.267C122.454 339.324 115.968 340.158 110.127 337.087C104.286 334.016 101.29 328.216 103.414 324.16Z" fill="#DBD1D1"/>
<path d="M46.8612 262.027C50.2369 258.919 56.609 260.283 61.1226 265.136C65.6362 269.988 66.5465 276.508 63.1708 279.541C59.7951 282.574 53.4229 281.285 48.9473 276.433C44.4716 271.58 43.5234 265.174 46.8612 262.027Z" fill="#DBD1D1"/>
<path d="M31.2722 179.575C35.8616 179.575 39.6925 184.769 39.8442 191.365C39.9959 197.961 36.3547 203.382 31.7652 203.496C27.1758 203.61 23.3449 198.302 23.1932 191.706C23.0415 185.11 26.531 179.689 31.2722 179.575Z" fill="#DBD1D1"/>
<path d="M58.6951 102.392C63.019 103.946 64.6879 110.239 62.488 116.456C60.2881 122.674 54.9022 126.427 50.5782 124.872C46.2543 123.318 44.5854 116.987 46.7853 110.808C48.9852 104.629 54.3711 100.686 58.6951 102.392Z" fill="#DBD1D1"/>
<path d="M122.227 47.7274C124.844 51.5183 122.568 57.6217 117.144 61.3747C111.72 65.1276 105.196 65.1656 102.579 61.3747C99.9622 57.5838 102.238 51.4804 107.662 47.7274C113.086 43.9744 119.61 43.9744 122.227 47.7274Z" fill="#DBD1D1"/>
<g style="mix-blend-mode:color-dodge">
<path d="M232.791 292.847C232.791 300.429 217.316 306.57 198.237 306.57C179.159 306.57 163.683 300.429 163.683 292.847C163.683 285.265 179.159 279.086 198.237 279.086C217.316 279.086 232.791 285.265 232.791 292.847Z" fill="#241F1A"/>
</g>
<g style="mix-blend-mode:color-dodge">
<path d="M201.461 94.5071C201.461 100.838 188.527 105.88 172.559 105.88C156.591 105.88 143.657 100.724 143.657 94.5071C143.657 88.29 156.591 83.1344 172.559 83.1344C188.527 83.1344 201.461 88.1384 201.461 94.5071Z" fill="#241F1A"/>
</g>
<g style="mix-blend-mode:color-dodge">
<path d="M133.037 267.865C127.082 272.604 112.668 264.34 100.797 249.404C88.9247 234.468 84.1077 218.546 90.0247 213.845C95.9416 209.144 110.431 217.371 122.303 232.307C134.174 247.243 138.991 263.165 133.037 267.865Z" fill="#241F1A"/>
</g>
<g style="mix-blend-mode:color-dodge">
<path d="M283.275 212.746C290.86 216.537 290.86 231.094 283.995 245.689C277.13 260.284 265.22 269.192 257.9 265.401C250.579 261.61 250.314 247.091 257.179 232.496C264.044 217.901 275.84 209.144 283.275 212.746Z" fill="#241F1A"/>
</g>
<g style="mix-blend-mode:color-dodge">
<path d="M118.244 115.85C125.83 119.413 125.83 134.16 118.965 148.755C112.1 163.35 100 172.221 92.7177 168.619C85.4353 165.018 84.9422 150.309 91.997 135.714C99.0519 121.119 110.772 112.249 118.244 115.85Z" fill="#241F1A"/>
</g>
<g style="mix-blend-mode:color-dodge">
<path d="M281.568 135.98C286.878 134.881 292.947 142.387 295.222 152.774C297.498 163.161 294.919 172.562 289.609 173.661C284.299 174.761 278.23 167.293 275.954 156.868C273.678 146.443 276.258 137.117 281.568 135.98Z" fill="#241F1A"/>
</g>
<g style="mix-blend-mode:color-dodge">
<path d="M229.605 93.711C233.587 89.9201 242.652 93.4836 249.821 101.293C256.99 109.102 259.531 118.504 255.51 122.143C251.49 125.782 242.425 122.37 235.294 114.561C228.163 106.752 225.546 97.3882 229.605 93.711Z" fill="#241F1A"/>
</g>
<g style="mix-blend-mode:color-dodge">
<path d="M171.269 177.301C171.277 180.61 170.301 183.848 168.466 186.603C166.631 189.358 164.019 191.507 160.961 192.777C157.903 194.047 154.537 194.381 151.289 193.737C148.04 193.093 145.056 191.5 142.715 189.16C140.373 186.82 138.779 183.837 138.135 180.591C137.491 177.344 137.825 173.98 139.096 170.923C140.367 167.867 142.517 165.257 145.273 163.422C148.03 161.588 151.269 160.613 154.58 160.621C159.007 160.621 163.251 162.378 166.381 165.506C169.511 168.634 171.269 172.877 171.269 177.301V177.301Z" fill="#241F1A"/>
</g>
<g style="mix-blend-mode:color-dodge">
<path d="M222.664 138.14C222.671 141.194 221.772 144.18 220.08 146.723C218.389 149.265 215.98 151.248 213.16 152.422C210.34 153.596 207.235 153.906 204.238 153.315C201.241 152.724 198.487 151.258 196.324 149.102C194.161 146.945 192.687 144.196 192.089 141.202C191.49 138.208 191.793 135.104 192.961 132.283C194.128 129.461 196.106 127.049 198.646 125.352C201.185 123.655 204.171 122.749 207.226 122.749C211.314 122.749 215.235 124.37 218.129 127.255C221.023 130.14 222.653 134.055 222.664 138.14V138.14Z" fill="#241F1A"/>
</g>
<g style="mix-blend-mode:color-dodge">
<path d="M254.752 180.523C254.752 182.555 254.149 184.541 253.019 186.231C251.89 187.92 250.285 189.237 248.406 190.014C246.528 190.792 244.461 190.995 242.468 190.599C240.474 190.203 238.642 189.224 237.205 187.787C235.767 186.351 234.788 184.52 234.392 182.527C233.995 180.534 234.198 178.469 234.976 176.592C235.754 174.714 237.072 173.11 238.762 171.981C240.453 170.852 242.44 170.25 244.473 170.25C247.199 170.25 249.813 171.332 251.741 173.259C253.669 175.185 254.752 177.798 254.752 180.523V180.523Z" fill="#241F1A"/>
</g>
<g style="mix-blend-mode:color-dodge">
<path d="M218.15 222.223C218.15 224.131 217.583 225.995 216.521 227.58C215.459 229.165 213.95 230.399 212.185 231.126C210.42 231.852 208.479 232.039 206.608 231.661C204.737 231.283 203.021 230.359 201.677 229.004C200.332 227.65 199.421 225.927 199.058 224.055C198.695 222.182 198.896 220.243 199.637 218.485C200.378 216.727 201.625 215.229 203.219 214.18C204.813 213.131 206.683 212.579 208.592 212.594C211.134 212.614 213.565 213.637 215.355 215.441C217.145 217.245 218.15 219.682 218.15 222.223V222.223Z" fill="#241F1A"/>
</g>
<g style="mix-blend-mode:color-dodge">
<path d="M155.87 246.636C163.683 246.636 170.018 240.306 170.018 232.496C170.018 224.687 163.683 218.356 155.87 218.356C148.056 218.356 141.722 224.687 141.722 232.496C141.722 240.306 148.056 246.636 155.87 246.636Z" fill="#241F1A"/>
</g>
<g style="mix-blend-mode:color-dodge">
<path d="M220.084 260.094C225.761 260.094 230.363 255.495 230.363 249.821C230.363 244.147 225.761 239.547 220.084 239.547C214.407 239.547 209.805 244.147 209.805 249.821C209.805 255.495 214.407 260.094 220.084 260.094Z" fill="#241F1A"/>
</g>
<g style="mix-blend-mode:color-dodge">
<path d="M156.477 135.563C156.477 136.703 156.139 137.817 155.505 138.764C154.872 139.712 153.971 140.45 152.918 140.887C151.864 141.323 150.705 141.437 149.587 141.214C148.468 140.992 147.441 140.443 146.635 139.637C145.829 138.832 145.28 137.805 145.057 136.687C144.835 135.569 144.949 134.411 145.385 133.358C145.822 132.305 146.56 131.405 147.509 130.772C148.457 130.139 149.571 129.801 150.712 129.801C152.241 129.801 153.707 130.408 154.788 131.488C155.869 132.569 156.477 134.035 156.477 135.563V135.563Z" fill="#241F1A"/>
</g>
<g style="mix-blend-mode:color-dodge">
<path d="M138.498 194.625C138.528 196.408 138.027 198.16 137.058 199.657C136.088 201.155 134.695 202.33 133.056 203.033C131.416 203.736 129.604 203.936 127.85 203.607C126.097 203.277 124.481 202.434 123.208 201.184C121.936 199.933 121.065 198.333 120.705 196.586C120.346 194.839 120.515 193.025 121.191 191.375C121.866 189.724 123.018 188.312 124.5 187.318C125.981 186.324 127.725 185.793 129.509 185.792C131.867 185.792 134.131 186.718 135.812 188.37C137.494 190.022 138.459 192.269 138.498 194.625Z" fill="#241F1A"/>
</g>
<g style="mix-blend-mode:color-dodge">
<path d="M209.805 186.93C209.805 188.715 209.273 190.459 208.276 191.94C207.28 193.422 205.865 194.573 204.211 195.247C202.557 195.921 200.74 196.087 198.992 195.725C197.243 195.363 195.642 194.488 194.392 193.213C193.143 191.937 192.302 190.318 191.977 188.563C191.652 186.808 191.857 184.996 192.567 183.358C193.276 181.72 194.458 180.33 195.961 179.366C197.464 178.402 199.22 177.908 201.006 177.945C203.357 177.995 205.595 178.963 207.24 180.643C208.885 182.322 209.806 184.579 209.805 186.93V186.93Z" fill="#241F1A"/>
</g>
<g style="mix-blend-mode:color-dodge">
<path d="M264.386 141.363C264.386 144.033 263.593 146.644 262.107 148.864C260.622 151.085 258.511 152.814 256.041 153.835C253.572 154.855 250.855 155.12 248.235 154.596C245.614 154.072 243.208 152.783 241.322 150.892C239.435 149.001 238.152 146.593 237.635 143.972C237.118 141.352 237.391 138.637 238.419 136.172C239.447 133.706 241.183 131.601 243.409 130.123C245.634 128.645 248.249 127.86 250.921 127.867C252.692 127.867 254.446 128.216 256.082 128.895C257.719 129.574 259.205 130.568 260.455 131.822C261.706 133.076 262.697 134.564 263.372 136.201C264.046 137.838 264.391 139.592 264.386 141.363V141.363Z" fill="#241F1A"/>
</g>
<g style="mix-blend-mode:color-dodge">
<path d="M302.277 206.187C302.285 207.338 301.95 208.464 301.315 209.424C300.68 210.384 299.774 211.133 298.712 211.577C297.65 212.02 296.48 212.138 295.351 211.916C294.222 211.693 293.184 211.14 292.371 210.327C291.557 209.513 291.003 208.476 290.781 207.348C290.558 206.219 290.676 205.05 291.12 203.988C291.564 202.927 292.313 202.021 293.274 201.387C294.234 200.753 295.361 200.418 296.512 200.425C298.041 200.425 299.507 201.032 300.589 202.113C301.67 203.194 302.277 204.659 302.277 206.187V206.187Z" fill="#241F1A"/>
</g>
<g style="mix-blend-mode:color-dodge">
<path d="M139.788 289.625C139.788 291.019 139.374 292.383 138.599 293.542C137.824 294.702 136.722 295.606 135.433 296.139C134.144 296.673 132.725 296.813 131.357 296.54C129.988 296.268 128.731 295.597 127.745 294.611C126.758 293.625 126.086 292.368 125.814 291C125.542 289.633 125.681 288.215 126.215 286.927C126.749 285.638 127.653 284.537 128.814 283.762C129.974 282.987 131.338 282.574 132.733 282.574C134.601 282.584 136.39 283.33 137.711 284.65C139.032 285.97 139.778 287.758 139.788 289.625Z" fill="#241F1A"/>
</g>
<g style="mix-blend-mode:color-dodge">
<path d="M85.2076 198.492C89.1039 198.492 92.2625 195.335 92.2625 191.441C92.2625 187.547 89.1039 184.39 85.2076 184.39C81.3113 184.39 78.1528 187.547 78.1528 191.441C78.1528 195.335 81.3113 198.492 85.2076 198.492Z" fill="#241F1A"/>
</g>
</svg>
